<?xml version="1.0" encoding="UTF-8"?>
<svg width="1218px" height="945px" viewBox="0 0 1218 945" version="1.1" xmlns="http://www.w3.org/2000/svg" xmlns:xlink="http://www.w3.org/1999/xlink">
    <!-- Generator: Sketch 52.6 (67491) - http://www.bohemiancoding.com/sketch -->
    <title>birdman-logo</title>
    <desc>Created with Sketch.</desc>
    <g id="Page-1" stroke="none" stroke-width="1" fill="none" fill-rule="evenodd">
        <g id="birdman-logo">
            <path d="M550.03474,396.48497 C788.338011,154.936031 911.674404,31.2079515 920.043918,25.3007331 C954.21431,1.18320848 966.857608,0 1009.84501,0 C1038.50328,0 1066.86369,8.4335777 1094.92622,25.3007331 C1108.34831,33.9001411 1116.67248,40.1511376 1119.89873,44.0537228 C1123.12497,47.9563081 1130.37872,58.033031 1141.65998,74.2838918 C1155.32217,117.179204 1155.32217,151.046056 1141.65998,175.884448 C1127.99779,200.72284 1112.41986,251.870166 1094.92622,329.326427 C1070.15243,624.560438 1012.85833,702.33337 920.043918,750.25118 C827.229506,798.168991 703.893113,814.167438 550.03474,798.246523 C465.976958,800.134018 393.954624,812.932488 333.967737,836.641933 C273.98085,860.351378 222.850121,896.228392 180.575551,944.272975 L1.13686838e-13,944.272975 L275.514944,666.245553 L550.03474,396.48497 Z" id="Path-2" fill="#E2574C"></path>
            <path d="M1149.87401,123.022291 C1149.96267,122.7268 1143.41293,112.00991 1148.39227,109.290657 C1148.77554,109.081349 1149.58436,110.196867 1149.63395,109.268983 C1150.0177,102.087989 1146.30919,85.1515437 1140.96729,73.4914563 C1135.62539,61.8313689 1121.84617,47.9973449 1121.05011,47.0097912 C1119.60706,45.2196173 1095.13933,43.1785392 1082.92933,50.6615392 C1086.86733,55.7815392 1089.23133,62.4765392 1089.23133,69.5665392 C1089.23133,86.8955392 1075.05333,101.074539 1057.72333,101.074539 C1053.39133,101.074539 1049.45233,100.286539 1045.90833,98.7115392 L1045.90833,120.766539 C1045.90833,149.648539 1073.75431,178.295774 1129.44626,206.708245 C1154.88009,165.358275 1161.68934,137.462957 1149.87401,123.022291 Z" id="Path" fill="#BF392B" transform="translate(1100.702016, 126.019691) rotate(1.000000) translate(-1100.702016, -126.019691) "></path>
            <path d="M1217.93824,139.656391 C1214.39324,122.721391 1181.84922,109 1151.52222,109 C1122.37722,109 1111.35022,125.542 1111.35022,146.022 C1111.35022,148.779 1110.56222,153.505 1111.35022,156.262 C1118.83322,155.868 1125.92222,156.262 1133.01222,156.262 C1154.67322,156.262 1201.79024,150.684391 1217.93824,139.656391 Z" id="Path" fill="#EFC75E"></path>
            <path d="M1111,156.631 C1118.089,156.237 1125.178,156.631 1132.268,156.631 C1153.93,156.631 1201.79124,150.339166 1217.93824,139.705166 C1211.63624,134.585166 1175.984,133 1166.926,133 C1145.658,133.001 1127.148,143.634 1111,156.631 Z" id="Path" fill="#A78B42"></path>
            <path d="M303.400486,537.25367 C303.400486,625.418745 325.389024,721.335164 362.03907,788.184659 C518.895609,750.399627 640.570486,576.977153 640.570486,366.736413 C640.570486,278.571337 628.842024,196.219155 592.193839,129.369659 C419.944393,154.559681 303.400486,327.015389 303.400486,537.25367 Z" id="Path" fill="#BF392B" transform="translate(471.985486, 458.777159) rotate(29.000000) translate(-471.985486, -458.777159) "></path>
            <path d="M1037,67.662 C1037,79.477 1046.846,89.324 1058.662,89.324 C1070.477,89.324 1080.324,79.478 1080.324,67.662 C1080.324,55.846 1070.478,46 1058.662,46 C1046.846,46.001 1037,55.847 1037,67.662 Z" id="Path" fill="#2B414D"></path>
            <path d="M1049,63.908 C1049,67.059 1051.757,69.816 1054.908,69.816 C1058.059,69.816 1060.816,67.059 1060.816,63.908 C1060.816,60.757 1058.059,58 1054.908,58 C1051.757,58 1049,60.757 1049,63.908 Z" id="Path" fill="#FFFFFF"></path>
        </g>
    </g>
</svg>