<svg xmlns="http://www.w3.org/2000/svg" xmlns:xlink="http://www.w3.org/1999/xlink" viewBox="0 0 806.12 1024"><defs><style>.cls-1,.cls-3,.cls-4,.cls-5,.cls-6,.cls-7,.cls-8{fill-rule:evenodd;}.cls-1{fill:url(#linear-gradient);}.cls-2{stroke:#979797;fill:url(#linear-gradient-2);}.cls-3{fill:#e2574c;}.cls-4{fill:#bf392b;}.cls-5{fill:#efc75e;}.cls-6{fill:#a78b42;}.cls-7{fill:#2b414d;}.cls-8{fill:#fff;}</style><linearGradient id="linear-gradient" x1="-278.48" y1="896.13" x2="-278.48" y2="895.13" gradientTransform="matrix(806.12, 0, 0, -1024, 224894.5, 917632)" gradientUnits="userSpaceOnUse"><stop offset="0" stop-color="#bf392b"/><stop offset="1" stop-color="#e2574c"/></linearGradient><linearGradient id="linear-gradient-2" x1="-278.44" y1="895.18" x2="-278.44" y2="895.6" gradientTransform="matrix(724, 0, 0, -724, 202002.59, 648862)" gradientUnits="userSpaceOnUse"><stop offset="0" stop-color="#d8d8d8"/><stop offset="1" stop-color="#fff"/></linearGradient></defs><title>Asset 1</title><g id="Layer_2" data-name="Layer 2"><g id="Layer_1-2" data-name="Layer 1"><g id="Page-1"><g id="birdman-pin"><g id="PIN_DO_Poor" data-name="PIN DO Poor"><path id="Path" class="cls-1" d="M806.12,403.06C806.23,687.88,403.06,1024,403.06,1024S0,687.88,0,403.06C0,180.46,180.45,0,403.06,0S806,180.46,806.12,403.06Z"/></g><circle id="Oval" class="cls-2" cx="408.67" cy="392" r="362"/><g id="Group-Copy"><path id="Path-2" class="cls-3" d="M368.25,322.63q171.3-174.21,177.31-178.47C561.93,132.57,568,132,588.59,132q20.61,0,40.77,12.16,9.66,6.21,12,9t10.43,14.54q9.82,30.93,0,48.84t-22.4,73.78C617.49,432.28,590,469.68,545.56,492.72S442,523.45,368.25,515.79q-60.42,1.37-103.54,18.46A189.08,189.08,0,0,0,191.2,586H104.67l132-133.67Z"/><path class="cls-4" d="M657,191.52c0-.15-3-5.35-.6-6.61.19-.1.57.44.6,0,.25-3.45-1.39-11.62-3.86-17.26s-9-12.41-9.34-12.89c-.68-.87-12.41-2.06-18.34,1.44a14.94,14.94,0,0,1,2.87,9.13,15.19,15.19,0,0,1-15.4,14.87,14,14,0,0,1-5.65-1.23l-.19,10.59q-.36,20.81,39.4,42Q665.3,202.07,657,191.52Z"/><path class="cls-5" d="M689.67,199.27C688,191.39,672.8,185,658.62,185c-13.63,0-18.79,7.7-18.79,17.23,0,1.29-.36,3.49,0,4.77,3.5-.18,6.82,0,10.13,0C660.09,207,682.12,204.4,689.67,199.27Z"/><path class="cls-6" d="M639.67,207c3.31-.2,6.63,0,9.94,0,10.13,0,32.51-3.2,40.06-8.6-2.95-2.6-19.62-3.4-23.85-3.4C655.87,195,647.22,200.4,639.67,207Z"/><path class="cls-4" d="M242.27,346.12c-20.53,37-33.63,82.47-33.8,119.09C283.16,485.87,374.66,441.34,423.61,353c20.53-37.05,34.78-74.38,34.95-111C380.34,212.46,291.23,257.78,242.27,346.12Z"/><path class="cls-7" d="M603.67,164.5a10.5,10.5,0,1,0,10.5-10.5A10.59,10.59,0,0,0,603.67,164.5Z"/><path class="cls-8" d="M608.67,163a3,3,0,1,0,3-3A3.08,3.08,0,0,0,608.67,163Z"/></g></g></g></g></g></svg>